<?xml version="1.0" encoding="UTF-8"?>
<svg id="_レイヤー_2" data-name="レイヤー 2" xmlns="http://www.w3.org/2000/svg" viewBox="0 0 40 40">
  <defs>
    <style>
      .cls-1 {
        fill: #fff;
      }
    </style>
  </defs>
  <g id="img">
    <g id="SOUND_ON" data-name="SOUND ON">
      <path class="cls-1" d="M18.61,20v-7.59c0-.44-.31-.77-.73-.71-.2.03-.4.15-.56.28-1.46,1.24-2.91,2.49-4.37,3.73-.09.07-.23.12-.34.12h-2.94c-.47,0-.74.27-.74.74v6.83c0,.46.27.74.74.74h2.9c.18,0,.31.05.44.17,1.46,1.26,2.93,2.51,4.39,3.77.25.21.52.29.82.16.3-.14.41-.39.41-.72v-7.52h-.02ZM31.07,20.01c0-1.52-.26-2.98-.79-4.4-.62-1.65-1.56-3.09-2.79-4.35-.21-.22-.46-.32-.76-.23-.53.16-.65.78-.24,1.21,2.96,3.16,3.86,6.84,2.7,11-.48,1.74-1.43,3.23-2.7,4.51-.18.18-.28.38-.25.64.04.29.21.49.49.57.31.09.56-.02.78-.25,2.34-2.43,3.52-5.34,3.56-8.71h0ZM26.92,19.95c-.03-2.19-.81-4.12-2.37-5.73-.32-.33-.75-.34-1.04-.05-.29.28-.27.72.04,1.04,1.96,2,2.51,4.98,1.39,7.54-.34.79-.83,1.48-1.43,2.09-.24.24-.28.58-.12.85.15.27.47.42.78.31.17-.06.33-.18.45-.31,1.5-1.6,2.26-3.49,2.29-5.74h.01ZM22.77,20.05c0-1.13-.38-2.08-1.15-2.87-.3-.31-.71-.33-1-.06-.3.28-.3.69,0,1.02,1.03,1.16,1.03,2.58,0,3.73-.28.32-.28.73,0,1.01.29.28.7.27,1-.04.77-.78,1.14-1.73,1.16-2.79h-.01Z"/>
      <path class="cls-1" d="M20,40C8.97,40,0,31.03,0,20S8.97,0,20,0s20,8.97,20,20-8.97,20-20,20ZM20,1C9.52,1,1,9.52,1,20s8.52,19,19,19,19-8.52,19-19S30.48,1,20,1Z"/>
    </g>
  </g>
</svg>