<svg viewBox="0 0 40 40" xmlns="http://www.w3.org/2000/svg"><g fill="#fff"><path d="m20 40c-11.03 0-20-8.97-20-20s8.97-20 20-20 20 8.97 20 20-8.97 20-20 20zm0-39c-10.48 0-19 8.52-19 19s8.52 19 19 19 19-8.52 19-19-8.52-19-19-19z"/><path d="m17.55 20c0-2.53 0-5.06 0-7.59 0-.44-.31-.77-.73-.71-.2.03-.4.15-.56.28-1.46 1.24-2.91 2.49-4.37 3.73-.09.07-.23.12-.34.12-.98 0-1.96 0-2.94 0-.47 0-.74.27-.74.74v6.83c0 .46.27.74.74.74h2.9c.18 0 .31.05.44.17 1.46 1.26 2.93 2.51 4.39 3.77.25.21.52.29.82.16.3-.14.41-.39.41-.72 0-2.51 0-5.01 0-7.52z"/><path d="m27.42 20 4.52-4.52c.27-.27.27-.7 0-.96-.27-.27-.7-.27-.96 0l-4.52 4.52-4.52-4.52c-.27-.27-.7-.27-.96 0-.27.27-.27.7 0 .96l4.52 4.52-4.52 4.52c-.27.27-.27.7 0 .96.13.13.31.2.48.2s.35-.07.48-.2l4.52-4.52 4.52 4.52c.13.13.31.2.48.2s.35-.07.48-.2c.27-.27.27-.7 0-.96z"/></g></svg>