<?xml version="1.0" encoding="UTF-8"?>
<svg id="_レイヤー_2" data-name="レイヤー 2" xmlns="http://www.w3.org/2000/svg" viewBox="0 0 52.53 11.36">
  <g id="txt">
    <g>
      <path d="M3.94,9.6c1.02,0,1.73-.5,1.73-1.46,0-.86-.58-1.15-1.52-1.54l-1.73-.69c-1.2-.48-2-1.33-2-2.67C.42,1.33,1.92,0,4.24,0c1.57,0,2.71.66,3.36,1.33l-.99,1.49c-.71-.64-1.55-1.1-2.5-1.1s-1.63.45-1.63,1.26.64,1.09,1.26,1.34l1.84.75c1.55.64,2.16,1.5,2.16,2.88,0,2.05-1.5,3.41-3.84,3.41-1.89,0-3.19-.88-3.91-1.71l.99-1.5c.86.94,1.9,1.46,2.94,1.46Z"/>
      <path d="M10.72,1.81V.13h8.13v1.68h-3.03v9.36h-2.06V1.81h-3.04Z"/>
      <path d="M27.67.11l4.34,11.06h-2.27l-.96-2.54h-4.34l-.96,2.54h-2.16L25.65.11h2.02ZM26.61,2.5l-1.67,4.47h3.31l-1.65-4.47Z"/>
      <path d="M42,.13v1.74h-4.43v3.1h4.18v1.71h-4.18v4.48h-2.08V.13h6.51Z"/>
      <path d="M52.53.13v1.74h-4.43v3.1h4.18v1.71h-4.18v4.48h-2.08V.13h6.51Z"/>
    </g>
  </g>
</svg>