<?xml version="1.0" encoding="UTF-8"?>
<svg id="_レイヤー_2" data-name="レイヤー 2" xmlns="http://www.w3.org/2000/svg" viewBox="0 0 415.82 32.58">
  <g id="txt">
    <g>
      <g>
        <path d="M1.49,26.67l10.04-10.33c1.89-1.97,3.36-3.91,3.36-5.88,0-2.35-1.6-3.82-3.82-3.82s-3.95,1.34-4.92,3.44L1.28,7.22C3.17,3.02,6.99,1,10.98,1c5.04,0,9.7,3.36,9.7,9.24,0,3.57-2.06,6.64-4.83,9.41l-5.75,5.76h11.05v5.59H1.49v-4.33Z"/>
        <path d="M22.15,31.99H.49v-5.73l10.32-10.62c1.52-1.59,3.08-3.45,3.08-5.18s-1.08-2.82-2.82-2.82c-2.22,0-3.41,1.56-4.01,2.86l-.46,1L0,7.63l.37-.82C2.29,2.54,6.25,0,10.98,0c5.32,0,10.7,3.52,10.7,10.24,0,3.41-1.63,6.62-5.12,10.12l-4.05,4.05h9.63v7.59ZM2.49,29.99h17.66v-3.59H7.69l7.46-7.46c3.1-3.1,4.54-5.86,4.54-8.7,0-5.41-4.38-8.24-8.7-8.24-3.61,0-6.69,1.79-8.39,4.83l3.17,1.86c1.23-1.98,3.08-3.06,5.3-3.06,2.84,0,4.82,1.98,4.82,4.82,0,2.44-1.84,4.69-3.64,6.57L2.49,27.07v2.92Z"/>
      </g>
      <g>
        <path d="M45.97,21.92c0,6.3-4.96,9.66-10.5,9.66-4.58,0-8.57-2.02-10.25-6.3l4.96-2.9c.71,2.27,2.35,3.53,5.29,3.53s4.71-1.6,4.71-3.99-1.68-3.99-4.54-3.99h-8.91l1.18-16.34h16.68v5.42h-11.3l-.38,5.29h3.02c5.38,0,10.04,3.32,10.04,9.62Z"/>
        <path d="M35.47,32.58c-5.38,0-9.45-2.53-11.18-6.94l-.31-.8,6.78-3.96.38,1.2c.62,1.96,1.95,2.83,4.34,2.83s3.71-1.09,3.71-2.99-1.32-2.99-3.54-2.99h-9.98L26.97.59h18.61v7.42h-11.37l-.23,3.29h1.95c6.5,0,11.04,4.37,11.04,10.62,0,7.33-5.96,10.66-11.5,10.66ZM26.49,25.69c1.58,3.12,4.8,4.89,8.97,4.89,4.73,0,9.5-2.68,9.5-8.66s-4.54-8.62-9.04-8.62h-4.1l.52-7.29h11.23v-3.42h-14.75l-1.03,14.34h7.83c3.31,0,5.54,2.01,5.54,4.99s-2.24,4.99-5.71,4.99c-2.78,0-4.72-1.04-5.78-3.09l-3.19,1.87Z"/>
      </g>
      <g>
        <path d="M54.78,13.22h-4.41l1.68-11.68h5.88l-3.15,11.68Z"/>
        <path d="M55.55,14.22h-6.33l1.97-13.68h8.05l-3.69,13.68ZM51.52,12.22h2.49l2.61-9.68h-3.71l-1.39,9.68Z"/>
      </g>
      <g>
        <path d="M61,24.31l4.96-2.9c1.05,2.73,3.11,4.49,6.76,4.49s4.71-1.47,4.71-3.11c0-2.18-1.97-3.02-6.34-4.28-4.49-1.3-8.86-3.19-8.86-8.78s4.62-8.74,9.66-8.74,8.53,2.48,10.5,6.6l-4.87,2.81c-1.05-2.23-2.65-3.78-5.63-3.78-2.44,0-3.86,1.26-3.86,2.94,0,1.81,1.13,2.77,5.59,4.12,4.66,1.47,9.62,3.02,9.62,9.03,0,5.5-4.41,8.86-10.67,8.86s-9.96-2.9-11.55-7.27Z"/>
        <path d="M72.55,32.58c-6.1,0-10.65-2.89-12.49-7.92l-.29-.78,6.69-3.91.42,1.1c1.01,2.63,2.86,3.85,5.83,3.85,1.69,0,3.71-.37,3.71-2.11,0-1.35-1.16-2.04-5.62-3.32-4.98-1.44-9.59-3.62-9.59-9.74S66.58,0,71.88,0s9.22,2.61,11.4,7.16l.4.84-6.61,3.82-.46-.98c-1.06-2.25-2.47-3.21-4.73-3.21-1.74,0-2.86.76-2.86,1.94,0,.99.35,1.79,4.88,3.16,4.62,1.46,10.33,3.26,10.33,9.99,0,5.9-4.69,9.86-11.67,9.86ZM62.25,24.74c1.71,3.78,5.34,5.84,10.3,5.84,5.87,0,9.67-3.09,9.67-7.86,0-5.27-4.32-6.63-8.9-8.07-4.19-1.26-6.31-2.39-6.31-5.08,0-2.32,2-3.94,4.86-3.94,2.67,0,4.65,1.11,6.02,3.4l3.15-1.82c-1.93-3.37-5.16-5.21-9.17-5.21-4.3,0-8.66,2.66-8.66,7.74,0,4.55,3.12,6.36,8.14,7.82,4.4,1.27,7.07,2.25,7.07,5.25,0,.96-.41,4.11-5.71,4.11-3.38,0-5.8-1.37-7.22-4.07l-3.25,1.9Z"/>
      </g>
      <g>
        <path d="M109.71,11.46c0,5.5-4.37,9.87-10.04,9.87h-5.17v9.66h-5.8V1.59h10.96c5.67,0,10.04,4.37,10.04,9.87ZM103.96,11.46c0-2.56-1.81-4.45-4.29-4.45h-5.17v8.91h5.17c2.48,0,4.29-1.93,4.29-4.45Z"/>
        <path d="M95.5,31.99h-7.8V.59h11.96c6.19,0,11.04,4.78,11.04,10.87s-4.85,10.87-11.04,10.87h-4.17v9.66ZM89.71,29.99h3.8v-9.66h6.17c5.07,0,9.04-3.9,9.04-8.87s-3.97-8.87-9.04-8.87h-9.96v27.41ZM99.67,16.91h-6.17V6.01h6.17c3.01,0,5.29,2.34,5.29,5.45s-2.27,5.45-5.29,5.45ZM95.5,14.91h4.17c1.9,0,3.29-1.45,3.29-3.45s-1.35-3.45-3.29-3.45h-4.17v6.91Z"/>
      </g>
      <g>
        <path d="M123.65,20.79h-4.41v10.21h-5.8V1.59h11.76c5.42,0,9.79,4.37,9.79,9.75,0,3.7-2.31,7.02-5.67,8.57l6.51,11.09h-6.26l-5.92-10.21ZM119.24,15.7h5.96c2.18,0,3.99-1.93,3.99-4.37s-1.81-4.33-3.99-4.33h-5.96v8.7Z"/>
        <path d="M137.58,31.99h-8.58l-5.92-10.21h-2.83v10.21h-7.8V.59h12.76c5.95,0,10.79,4.82,10.79,10.75,0,3.65-2.04,7.06-5.28,8.97l6.86,11.69ZM130.15,29.99h3.94l-6.18-10.53,1-.46c3.09-1.43,5.09-4.44,5.09-7.66,0-4.82-3.94-8.75-8.79-8.75h-10.76v27.41h3.8v-10.21h5.99l5.92,10.21ZM125.21,16.7h-6.96V6.01h6.96c2.75,0,4.99,2.39,4.99,5.33s-2.24,5.37-4.99,5.37ZM120.24,14.7h4.96c1.65,0,2.99-1.51,2.99-3.37s-1.34-3.33-2.99-3.33h-4.96v6.7Z"/>
      </g>
      <g>
        <path d="M146.66,1.59v29.41h-5.8V1.59h5.8Z"/>
        <path d="M147.66,31.99h-7.8V.59h7.8v31.41ZM141.86,29.99h3.8V2.59h-3.8v27.41Z"/>
      </g>
      <g>
        <path d="M175.56,1.59v29.41h-4.41l-12.6-17.98v17.98h-5.8V1.59h4.41l12.6,17.94V1.59h5.8Z"/>
        <path d="M176.56,31.99h-5.93l-11.08-15.81v15.81h-7.8V.59h5.93l11.08,15.77V.59h7.8v31.41ZM171.67,29.99h2.89V2.59h-3.8v20.1l-14.12-20.1h-2.89v27.41h3.8V9.85l14.12,20.15Z"/>
      </g>
      <g>
        <path d="M211.44,17.47c0,8.49-6.01,14.11-14.45,14.11-9.2,0-15.75-6.85-15.75-15.25s6.64-15.33,15.42-15.33c5.59,0,10.33,2.81,12.81,6.85l-4.96,2.86c-1.34-2.35-4.33-4.07-7.9-4.07-5.59,0-9.62,4.12-9.62,9.7s3.91,9.58,10.04,9.58c4.62,0,7.56-2.23,8.57-5.59h-8.91v-5.12h14.75v2.27Z"/>
        <path d="M196.98,32.58c-9.55,0-16.75-6.99-16.75-16.25S187.44,0,196.65,0c5.65,0,10.89,2.81,13.66,7.32l.54.88-6.72,3.87-.5-.87c-1.24-2.17-4-3.57-7.03-3.57-4.99,0-8.62,3.66-8.62,8.7s3.63,8.58,9.04,8.58c3.39,0,5.85-1.26,7.09-3.59h-8.42v-7.12h16.75v3.27c0,8.9-6.35,15.11-15.45,15.11ZM196.65,2c-8.08,0-14.42,6.3-14.42,14.33s6.34,14.25,14.75,14.25,13.45-5.27,13.45-13.11v-1.27h-12.75v3.12h9.25l-.39,1.29c-1.2,4-4.67,6.3-9.53,6.3-6.5,0-11.04-4.35-11.04-10.58s4.47-10.7,10.62-10.7c3.35,0,6.46,1.44,8.21,3.74l3.22-1.85c-2.52-3.43-6.79-5.52-11.38-5.52Z"/>
      </g>
      <g>
        <path d="M223.86,25.99l5-2.86c.92,1.85,2.27,2.77,4.71,2.77,3.19,0,4.58-1.68,4.58-4.07V1.59h5.75v20.25c0,6.34-4.54,9.75-10.33,9.75-4.5,0-7.9-1.93-9.7-5.59Z"/>
        <path d="M233.57,32.58c-4.88,0-8.64-2.18-10.6-6.14l-.42-.84,6.73-3.85.47.95c.8,1.6,1.87,2.22,3.81,2.22,2.41,0,3.58-1.01,3.58-3.07V.59h7.75v21.25c0,6.43-4.55,10.75-11.33,10.75ZM225.21,26.37c1.71,2.76,4.58,4.21,8.35,4.21,4.51,0,9.33-2.3,9.33-8.75V2.59h-3.75v19.25c0,3.18-2.09,5.07-5.58,5.07-2.3,0-3.93-.77-5.06-2.42l-3.29,1.88Z"/>
      </g>
      <g>
        <path d="M249.06,16.29c0-8.61,6.76-15.29,15.25-15.29s15.29,6.68,15.29,15.29-6.81,15.29-15.29,15.29-15.25-6.72-15.25-15.29ZM273.8,16.29c0-5.67-4.16-9.66-9.49-9.66s-9.49,3.99-9.49,9.66,4.16,9.62,9.49,9.62,9.49-3.99,9.49-9.62Z"/>
        <path d="M264.31,32.58c-9.11,0-16.25-7.16-16.25-16.29S255.2,0,264.31,0s16.29,7.16,16.29,16.29-7.16,16.29-16.29,16.29ZM264.31,2c-7.99,0-14.25,6.28-14.25,14.29s6.26,14.29,14.25,14.29,14.29-6.28,14.29-14.29-6.28-14.29-14.29-14.29ZM264.31,26.91c-5.98,0-10.49-4.57-10.49-10.62s4.51-10.66,10.49-10.66,10.49,4.58,10.49,10.66-4.51,10.62-10.49,10.62ZM264.31,7.63c-4.92,0-8.49,3.64-8.49,8.66s3.57,8.62,8.49,8.62,8.49-3.63,8.49-8.62-3.57-8.66-8.49-8.66Z"/>
      </g>
      <g>
        <path d="M283.92,21.37V1.59h5.75v19.32c0,2.86,1.51,5,5.46,5s5.46-2.14,5.46-5V1.59h5.8v19.79c0,6.34-4.79,10.21-11.26,10.21s-11.22-3.86-11.22-10.21Z"/>
        <path d="M295.14,32.58c-7.31,0-12.22-4.5-12.22-11.21V.59h7.75v20.32c0,2.69,1.46,4,4.46,4s4.46-1.31,4.46-4V.59h7.8v20.79c0,6.7-4.93,11.21-12.26,11.21ZM284.92,2.59v18.79c0,5.51,4.11,9.21,10.22,9.21s10.26-3.7,10.26-9.21V2.59h-3.8v18.32c0,3.81-2.35,6-6.46,6s-6.46-2.19-6.46-6V2.59h-3.75Z"/>
      </g>
      <g>
        <path d="M321.76,20.79h-4.41v10.21h-5.8V1.59h11.76c5.42,0,9.79,4.37,9.79,9.75,0,3.7-2.31,7.02-5.67,8.57l6.51,11.09h-6.26l-5.92-10.21ZM317.35,15.7h5.96c2.18,0,3.99-1.93,3.99-4.37s-1.81-4.33-3.99-4.33h-5.96v8.7Z"/>
        <path d="M335.69,31.99h-8.58l-5.92-10.21h-2.83v10.21h-7.8V.59h12.76c5.95,0,10.79,4.82,10.79,10.75,0,3.65-2.04,7.06-5.28,8.97l6.86,11.69ZM328.26,29.99h3.94l-6.18-10.53,1-.46c3.09-1.43,5.09-4.44,5.09-7.66,0-4.82-3.94-8.75-8.79-8.75h-10.76v27.41h3.8v-10.21h5.99l5.92,10.21ZM323.32,16.7h-6.96V6.01h6.96c2.75,0,4.99,2.39,4.99,5.33s-2.24,5.37-4.99,5.37ZM318.35,14.7h4.96c1.65,0,2.99-1.51,2.99-3.37s-1.34-3.33-2.99-3.33h-4.96v6.7Z"/>
      </g>
      <g>
        <path d="M361.81,1.59v29.41h-4.41l-12.6-17.98v17.98h-5.8V1.59h4.41l12.6,17.94V1.59h5.8Z"/>
        <path d="M362.81,31.99h-5.93l-11.08-15.81v15.81h-7.8V.59h5.93l11.08,15.77V.59h7.8v31.41ZM357.92,29.99h2.89V2.59h-3.8v20.1l-14.12-20.1h-2.89v27.41h3.8V9.85l14.12,20.15Z"/>
      </g>
      <g>
        <path d="M385.65,25.7h-11.72l-1.76,5.29h-6.26l10.29-29.41h7.18l10.33,29.41h-6.3l-1.76-5.29ZM383.84,20.28l-4.03-12.01-4.03,12.01h8.07Z"/>
        <path d="M395.12,31.99h-8.43l-1.76-5.29h-10.28l-1.76,5.29h-8.39l10.99-31.41h8.6l11.04,31.41ZM388.13,29.99h4.17l-9.63-27.41h-5.76l-9.59,27.41h4.13l1.76-5.29h13.16l1.76,5.29ZM385.23,21.28h-10.85l5.42-16.16,5.42,16.16ZM377.17,19.28h5.28l-2.64-7.87-2.64,7.87Z"/>
      </g>
      <g>
        <path d="M414.82,25.45v5.54h-17.01V1.59h5.8v23.86h11.22Z"/>
        <path d="M415.82,31.99h-19.01V.59h7.8v23.86h11.22v7.54ZM398.81,29.99h15.01v-3.54h-11.22V2.59h-3.8v27.41Z"/>
      </g>
    </g>
  </g>
</svg>